<svg width="100" height="100" viewBox="0 0 100 100" fill="none" xmlns="http://www.w3.org/2000/svg">
<path d="M21.875 15.625H78.125V10.9375C78.125 9.6943 77.6311 8.50201 76.7521 7.62294C75.873 6.74386 74.6807 6.25 73.4375 6.25H12.8906C11.1294 6.25 9.44035 6.94964 8.19499 8.19499C6.94964 9.44035 6.25 11.1294 6.25 12.8906V73.4375C6.25 74.6807 6.74386 75.873 7.62294 76.7521C8.50201 77.6311 9.6943 78.125 10.9375 78.125H15.625V21.875C15.625 20.2174 16.2835 18.6277 17.4556 17.4556C18.6277 16.2835 20.2174 15.625 21.875 15.625Z" fill="#414540"/>
<path d="M89.0625 21.875H26.5625C25.3193 21.875 24.127 22.3689 23.2479 23.2479C22.3689 24.127 21.875 25.3193 21.875 26.5625V89.0625C21.875 90.3057 22.3689 91.498 23.2479 92.3771C24.127 93.2561 25.3193 93.75 26.5625 93.75H89.0625C90.3057 93.75 91.498 93.2561 92.3771 92.3771C93.2561 91.498 93.75 90.3057 93.75 89.0625V26.5625C93.75 25.3193 93.2561 24.127 92.3771 23.2479C91.498 22.3689 90.3057 21.875 89.0625 21.875ZM76.5625 60.9375H60.9375V76.5625H54.6875V60.9375H39.0625V54.6875H54.6875V39.0625H60.9375V54.6875H76.5625V60.9375Z" fill="#414540"/>
</svg>
