<svg width="76" height="76" viewBox="0 0 76 76" fill="none" xmlns="http://www.w3.org/2000/svg">
<path d="M46.9469 38.0084L67.811 17.1443C68.407 16.5581 68.8811 15.8596 69.2058 15.0892C69.5305 14.3188 69.6995 13.4917 69.703 12.6557C69.7066 11.8196 69.5445 10.9912 69.2262 10.2181C68.9079 9.445 68.4397 8.74258 67.8486 8.15133C67.2575 7.56009 66.5552 7.09173 65.7822 6.77327C65.0092 6.45481 64.1808 6.29256 63.3447 6.29586C62.5087 6.29917 61.6816 6.46797 60.9111 6.79253C60.1406 7.11709 59.442 7.59099 58.8556 8.18689L37.9915 29.051L17.1274 8.189C16.5393 7.60084 15.841 7.1343 15.0726 6.81599C14.3041 6.49768 13.4805 6.33385 12.6487 6.33385C11.8169 6.33385 10.9933 6.49768 10.2248 6.81599C9.45636 7.1343 8.75812 7.60084 8.16996 8.189C6.98213 9.37683 6.31482 10.9879 6.31482 12.6677C6.31482 14.3476 6.98213 15.9586 8.16996 17.1464L29.0341 38.0084L8.1193 58.9232C6.94768 60.1144 6.2942 61.7202 6.3012 63.3909C6.3082 65.0617 6.97511 66.662 8.15667 67.8433C9.33822 69.0246 10.9387 69.6911 12.6094 69.6977C14.2802 69.7043 15.8859 69.0504 17.0767 67.8786L37.9894 46.9659L58.8514 67.8279C60.0885 69.065 61.7099 69.6836 63.3291 69.6836C64.9483 69.6836 66.5696 69.065 67.8067 67.8279C68.3951 67.2401 68.8619 66.5421 69.1804 65.7738C69.4989 65.0055 69.6628 64.1819 69.6628 63.3502C69.6628 62.5185 69.4989 61.695 69.1804 60.9267C68.8619 60.1584 68.3951 59.4603 67.8067 58.8726L46.9469 38.0084Z" fill="#414540"/>
</svg>
