<svg width="101" height="101" viewBox="0 0 101 101" fill="none" xmlns="http://www.w3.org/2000/svg">
<path d="M30.0896 88.7958C29.0375 87.7438 28.5115 86.4981 28.5115 85.0588C28.5115 83.6224 29.0375 82.3781 30.0896 81.3261L60.9156 50.5L29.9844 19.5688C29.0024 18.5868 28.5115 17.3594 28.5115 15.8865C28.5115 14.4135 29.0375 13.151 30.0896 12.099C31.1417 11.0469 32.3873 10.5208 33.8266 10.5208C35.263 10.5208 36.5073 11.0469 37.5594 12.099L72.9094 47.5542C73.3302 47.975 73.629 48.4309 73.8058 48.9219C73.9797 49.4129 74.0667 49.9389 74.0667 50.5C74.0667 51.0611 73.9797 51.5872 73.8058 52.0781C73.629 52.5691 73.3302 53.025 72.9094 53.4458L37.4542 88.901C36.4722 89.883 35.263 90.374 33.8266 90.374C32.3873 90.374 31.1417 89.8479 30.0896 88.7958Z" fill="#414540"/>
</svg>
