<svg width="30" height="30" viewBox="0 0 30 30" fill="none" xmlns="http://www.w3.org/2000/svg">
<path d="M13.25 29H4.49999C2.56699 29 0.999988 27.433 1 25.5L1.00014 4.49999C1.00015 2.567 2.56715 1 4.50014 1H20.2505C22.1835 1 23.7505 2.56701 23.7505 4.50001V11.5M22.875 22.8007V22.7085M7.12555 8.00002H17.6255M7.12555 13.25H17.6255M7.12555 18.5H12.3755M29 22.8751C29 22.8751 27.5473 27.1621 22.875 27.0872C18.2027 27.0123 16.75 22.8751 16.75 22.8751C16.75 22.8751 18.1438 18.5131 22.875 18.5131C27.6062 18.5131 29 22.8751 29 22.8751Z" stroke="#85E96C" stroke-width="2" stroke-linecap="round" stroke-linejoin="round"/>
</svg>
